<svg width="1400" height="220" viewBox="0 0 1400 220" fill="none" xmlns="http://www.w3.org/2000/svg">
  <path d="M0 200 Q 100 180 200 200 T 400 200 T 600 200 T 800 200 T 1000 200 T 1200 200 T 1400 200 V220 H0 Z" fill="currentColor" opacity="0.06"/>
  <path d="M0 170 Q 120 145 240 170 T 480 170 T 720 170 T 960 170 T 1200 170 T 1400 170" stroke="currentColor" stroke-width="1.5" opacity="0.14" fill="none"/>
  <path d="M0 140 Q 90 110 180 140 T 360 140 T 540 140 T 720 140 T 900 140 T 1080 140 T 1260 140 T 1400 140" stroke="currentColor" stroke-width="1.5" opacity="0.12" fill="none"/>
  <path d="M0 108 Q 110 80 220 108 T 440 108 T 660 108 T 880 108 T 1100 108 T 1320 108 T1400 108" stroke="currentColor" stroke-width="1.5" opacity="0.10" fill="none"/>
  <path d="M0 76 Q 130 50 260 76 T 520 76 T 780 76 T 1040 76 T 1300 76 T1400 76" stroke="currentColor" stroke-width="1.5" opacity="0.08" fill="none"/>
  <path d="M0 44 Q 140 20 280 44 T 560 44 T 840 44 T 1120 44 T1400 44" stroke="currentColor" stroke-width="1.5" opacity="0.06" fill="none"/>
</svg>
